<?xml version="1.0" encoding="UTF-8" standalone="yes"?>
<svg width="1999pt" height="1999pt" version="1.2" viewBox="0 0 1999 1999" baseProfile="tiny-ps" xmlns="http://www.w3.org/2000/svg">
  <title>bimi-svg-tiny-12-ps</title>
  <g transform="translate(0 1999) scale(.1 -.1)">
    <path d="m5835 19955c-38-13-157-51-262-85l-193-61v-1219-1220h-194-194l-96 243c-52 133-158 402-235 597l-139 355-49-1c-61-2-264-69-374-124-182-92-379-252-490-400-63-84-129-212-165-320-26-79-28-97-29-250 0-146 3-174 23-240 51-162 157-308 290-396 31-21 61-42 67-46 5-5-284-302-698-716l-707-708 40-39 40-40 717 717c622 622 715 719 704 732-12 15-9 15 30 0 118-42 160-47 454-53l290-6 43-122c38-104 47-121 61-114 9 5 125 61 259 125l243 116 2937-2 2936-3-1389-1447-1389-1448h-1548-1547l-14 48c-8 26-74 269-148 539-127 469-135 493-157 493-38 0-571-179-657-221-208-101-341-259-392-464-25-105-23-319 6-455 12-58 101-375 197-705l175-600-28-24c-15-13-183-166-372-340s-349-316-355-316-139 145-296 322-292 330-301 339c-15 14-32 0-210-191-107-113-194-211-194-218s65-92 145-189l145-177h385 385l587 537c322 295 587 543 587 551 1 7-64 257-144 555-157 588-164 625-122 686 26 39 62 67 97 75 28 7 5 77 186-565 52-184 97-343 100-352 5-17 83-18 1414-20l1408-3-1505-1568-1504-1568-214 6-235 597c-223 567-236 597-260 598-42 0-207-48-308-90-378-158-655-450-754-795-18-66-22-105-23-220 0-166 13-226 81-364 77-156 220-284 398-357 116-47 235-64 445-64 105 0 191-4 191-9 0-4-355-379-790-832l-790-823v-233-233l313-2 312-3 3-922 2-923h225 225l2 923 3 922 313 3 312 2v235 235l-769 2-770 3 795 828 794 827h746 745l81-124 80-124 87 56c47 30 132 86 188 124l102 68h1531c896 0 1530-4 1528-9-1-5-217-244-478-532-469-518-2306-2541-2387-2629l-41-45 19 80c63 265 40 587-61 828-201 483-664 750-1170 672-222-34-423-136-584-298-172-172-288-398-332-647-25-136-23-374 4-505 102-508 457-861 930-925 124-17 290-8 412 23 52 14 96 24 98 22 1-1-337-376-752-832l-754-830 74-86 185 202 184 202 3-686 2-685h210 210l2 343 3 342h165 165l410-684 248-1h249l-19 32c-11 18-113 186-228 373-114 187-209 345-212 351-2 6 20 24 49 39 159 82 259 205 318 390 32 99 39 318 15 436-48 240-201 413-429 485-73 23-210 39-390 47l-58 2 698 765 699 765 3-492 2-493h230 230v370 370h179 179l223-370 222-370h268 268l-109 178c-60 97-173 283-253 412l-144 235 75 41c183 99 304 266 348 480 21 100 15 368-11 459-63 228-226 400-446 470l-69 22 1012 1110 1013 1111 3-499 2-499-577-646c-318-355-579-648-580-652s13-25 32-47c34-40 34-40 53-20 11 11 380 424 821 918l801 897v579 579l1223 1341 1222 1341h671 672l167-182c91-101 170-184 173-185 4-1 81 81 170 183l164 184h469 469v1650c0 908-3 1650-7 1650s-122-36-262-81c-141-44-264-82-273-85-17-5-18-72-18-1225v-1219h-471c-445 0-471 1-458 17 12 15 557 659 596 704 12 14 0 30-104 138-246 257-498 421-715 465-319 65-645-57-945-355-114-113-207-225-200-241 3-7 146-173 317-368l312-355-498-3c-274-1-501 1-505 5-3 5-109 269-234 588s-228 581-230 583-116-56-254-128c-233-123-249-133-241-153 4-12 163-404 353-872 190-467 361-890 380-938l36-88-1441-1587c-793-873-1444-1588-1447-1589-3-2-69 287-146 642s-144 645-148 645c-8 0-421-187-479-216l-27-14 115-342c64-188 119-348 121-355 4-11-298-13-1608-11l-1613 3-178 310c-98 170-177 313-176 317 2 3 543 569 1203 1257l1200 1251h1512 1511l42-124 41-125 177 86c97 47 212 101 255 120 42 20 77 39 77 43 0 6-336 985-525 1531l-37 106-251-114c-139-63-254-117-257-119-2-3 49-162 114-355 66-192 117-352 114-354-3-3-477-4-1055-3l-1050 3 1390 1448 1389 1447h742 741l78-125 78-124 187 124 187 125h1287 1288v1650c0 908-2 1650-5 1650-4 0-348-108-482-151l-63-21v-1219-1220l-146 3-145 3-140 355c-365 928-328 840-358 840-73 0-260-65-411-142-412-211-670-576-670-949v-109l-277 2-277 3-178 309-178 310 125 127c105 107 125 132 125 158 0 36-37 66-68 57-11-4-205-200-432-436s-437-452-467-480l-55-50h-2934-2934v1305c0 1038-3 1305-12 1304-7 0-44-11-83-24z"/>
    <path d="m16850 19960c-30-10-148-48-262-85l-208-66v-1564-1565l490 2 491 3 38 60-234 312-235 311v1306c0 1039-3 1306-12 1305-7 0-38-9-68-19z"/>
    <path d="m14112 19431c-67-23-133-86-170-161-23-48-27-67-27-145 1-106 20-158 85-229 60-65 118-90 205-90 85 0 132 22 194 89 54 59 78 113 87 196 12 123-39 246-129 308-78 53-155 63-245 32z"/>
    <path d="m16820 16360c-47-16-165-54-262-85l-178-56v-1565-1564h493 493l32 66-234 313-234 314v1303c0 1037-3 1304-12 1303-7 0-51-13-98-29z"/>
    <path d="m11992 16178c-59-29-137-116-157-179-24-73-17-207 14-269 29-57 85-116 136-143 55-29 182-31 239-3 97 49 157 148 164 272 8 146-48 259-157 316-69 36-172 39-239 6z"/>
    <path d="m12743 16179c-56-28-108-80-140-142-24-46-27-63-28-152 0-81 4-109 21-146 28-60 76-114 133-147 40-23 57-27 126-27 93 0 138 18 198 78 63 63 91 136 91 237 0 67-4 95-22 134-56 124-146 186-266 186-52 0-82-6-113-21z"/>
    <path d="m5636 16050c-15-23-26-45-24-50 3-8 2443-1690 2452-1690 7 0 69 91 64 94-40 31-2440 1677-2450 1681s-24-9-42-35z"/>
    <path d="m3246 14096c-80-30-164-123-187-209-19-70-7-193 24-254 57-111 139-163 255-163 117 0 204 58 256 169 32 69 30 237-2 303-29 59-86 118-137 143-51 24-157 30-209 11z"/>
    <path d="m3273 13311c-50-13-119-58-151-98-60-77-67-100-67-213 0-91 3-112 24-154 111-226 399-230 508-8 25 51 28 67 28 162 0 91-3 111-24 150-30 57-86 116-133 141-43 22-137 32-185 20z"/>
    <path d="m16055 12909c-56-16-126-80-164-149-34-61-36-70-36-155 1-70 5-100 22-137 32-69 68-113 125-149 68-44 169-52 244-20 63 27 114 78 151 151 25 49 28 66 28 150-1 110-21 169-83 234-72 75-187 105-287 75z"/>
    <path d="m10643 12589c-53-26-105-77-140-136-23-40-28-61-31-139-5-117 12-174 76-245 144-160 373-121 466 80 17 37 21 65 21 146 0 90-3 105-28 152-34 65-87 120-141 144-58 26-168 26-223-2z"/>
    <path d="m5707 12381c-51-33-105-108-112-154-8-54 8-126 46-203 25-51 28-66 19-89-23-60-101-164-168-225-54-49-72-71-72-91 0-57 51-61 144-10 34 18 75 56 129 121 44 52 86 99 94 103 10 6 37-9 90-49 42-31 83-57 91-58 22-2 33 52 30 147l-3 82-59 32c-33 17-66 39-73 49-9 12-13 55-13 133-1 198-52 273-143 212zm53-236c0-31-11-37-32-18s-23 44-6 61c10 10 15 9 25-5 7-9 13-26 13-38z"/>
    <path d="m16380 12019c-265-81-467-197-635-363-107-106-165-186-229-312-66-133-87-215-93-369-7-166 10-256 71-380l45-90-22-27c-12-15-243-278-512-585-270-307-494-564-499-571-4-7 4-28 21-52l28-40h1290 1290l221 298c121 163 224 302 228 309 3 6-1 28-11 47l-17 36h-1183c-651 0-1183 3-1183 6s44 55 97 115l97 109h731 730l134 181c73 99 135 188 137 197s-128 352-290 762l-293 745-44 2c-24 1-73-7-109-18z"/>
    <path d="m12848 11666c-62-17-118-56-157-111-45-62-61-116-61-201 0-129 57-231 161-289 47-26 64-30 129-30 91 1 138 22 198 91 63 71 85 139 80 249-4 72-10 100-30 141-29 56-93 119-142 139-50 21-126 26-178 11z"/>
    <path d="m13598 11666c-189-52-275-282-177-474 57-112 164-172 279-159 67 8 119 37 173 97 123 136 110 358-29 479-68 60-160 82-246 57z"/>
    <path d="m4605 11649c-57-28-108-82-141-147-25-50-28-68-29-152 0-115 19-165 92-238 63-63 129-87 219-79 106 8 181 65 233 177 36 79 36 201 0 280-57 123-140 180-261 180-52-1-84-6-113-21z"/>
    <path d="m8745 11576c-59-28-114-83-147-146-20-39-23-59-23-150 0-94 3-110 27-155 56-107 147-165 258-165 110 0 197 58 250 165 22 44 25 63 25 160 0 121-12 156-76 229-73 84-210 111-314 62z"/>
    <path d="m11794 11126c-179-51-327-121-476-226-398-281-577-714-457-1107 74-242 280-430 554-505 71-19 115-22 384-27l305-6-904-1010c-497-555-1159-1293-1470-1640-311-346-657-732-768-858l-203-227 32-40c18-22 37-40 43-39 6 0 44 38 85 85l74 84 81-78c216-206 479-304 780-289 462 23 837 317 990 777 145 436 51 932-241 1267l-54 63 203 227c806 904 1483 1660 1496 1671 12 9 162 12 674 12h659l18-42c10-24 30-80 45-125l27-82 157 76c86 41 201 95 255 120 53 25 97 50 97 55 0 16-551 1613-560 1622-10 10-510-214-510-229 0-5 54-165 119-355l118-345-465-3c-256-1-469 1-473 5-3 5-111 275-239 601l-233 592-31-1c-17 0-68-11-112-23z"/>
    <path d="m4605 10806c-59-27-111-82-146-151-20-43-24-64-24-145 1-107 18-154 83-230 102-120 299-121 403-2 58 66 83 136 83 232 0 97-25 166-85 235-74 83-210 110-314 61z"/>
    <path d="m15442 8739c-67-33-109-79-145-156-33-72-31-198 4-273 57-122 143-180 263-180 89 0 136 21 194 84 69 74 87 124 86 236 0 78-4 103-22 141-80 163-232 222-380 148z"/>
    <path d="m16225 8757c-145-56-221-199-194-365 25-162 133-262 281-262 115 0 192 47 249 152 33 60 34 67 34 168 0 118-13 154-83 232-69 77-196 110-287 75z"/>
    <path d="m16076 7630c-237-38-441-145-610-320-124-129-203-257-264-430-55-156-67-236-67-445s12-289 67-445c63-176 143-305 273-436 102-103 180-159 302-216 119-56 253-88 399-95 499-24 932 286 1093 786 47 144 56 211 56 416 0 256-26 375-125 581-141 292-394 502-699 581-108 28-321 39-425 23z"/>
    <path d="m11230 6440v-1160h225 225l2 730 3 730 496-727 496-728 196-3 197-2v1160 1160h-225-225l-2-710-3-711-481 708-482 708-211 3-211 2v-1160z"/>
    <path d="m13330 7365v-235h315 315v-925-925h230 230v925 925h315 315v235 235h-860-860v-235z"/>
    <path d="m3217 4733c-7-11-817-2142-817-2148 0-3 96-5 214-5h215l19 53c11 28 50 136 87 240l68 187 406-2 406-3 85-237 85-238h223c122 0 222 1 222 3 0 1-184 486-409 1077l-409 1075-195 3c-108 1-198-1-200-5z"/>
    <path d="m7176 4732c-5-9-800-2096-810-2129l-7-23h215 215l19 53c11 28 50 136 88 240l68 187 405-2 405-3 85-237 86-238h223c122 0 222 1 222 3 0 1-184 486-409 1077l-409 1075-196 3c-107 1-197-1-200-6z"/>
    <path d="m8700 3641v-1081h558c316 0 596 5 647 10 327 38 536 177 608 404 31 100 30 282-2 375-47 135-135 228-283 299-43 20-76 40-75 44 1 3 30 27 65 52 118 87 185 211 198 366 24 283-142 497-451 582-77 21-100 22-672 26l-593 3v-1080z"/>
    <path d="m10910 3605v-1025h3195 3195v1025 1025h-3195-3195v-1025z"/>
    <path d="m2410 1095v-1085h210 210v420 420h465 465v220 220h-465-465v230 230h530 530v215 215h-740-740v-1085z"/>
    <path d="m4160 1095v-1085h210 210v1085 1085h-210-210v-1085z"/>
    <path d="m4970 1095v-1085h5095 5095v215 215h-2525-2525v870 870h-2570-2570v-1085z"/>
    <path d="m15390 1095v-1085h210 210l2 699 3 699 266-451c146-248 270-452 275-454 5-1 131 204 279 456l270 459 3-704 2-704h215 215v1085 1085l-236-2-236-3-252-453c-190-342-253-449-261-438-5 8-120 212-255 455l-245 441h-232-233v-1085z"/>
    <path d="m12595 1464c-781-218-1423-398-1426-402-10-12 21-102 36-102 16 0 2857 789 2863 795 2 2-2 27-9 54-9 35-18 51-28 50-9 0-655-178-1436-395z"/>
  </g>
</svg>